<svg version="1.1" id="Layer_1" xmlns="http://www.w3.org/2000/svg" xmlns:xlink="http://www.w3.org/1999/xlink" x="0px" y="0px"
	 width="100%" viewBox="0 0 253 100" enable-background="new 0 0 253 100" xml:space="preserve">
<path fill="#FFFFFF" opacity="1.000000" stroke="none" 
	d="
M24.000000,1.000000 
	C100.544098,1.000000 177.088196,1.000000 254.000000,1.000000 
	C254.000000,15.352135 254.000000,29.707409 253.560364,44.531784 
	C248.044281,44.237206 244.909241,45.627052 243.685806,51.340385 
	C242.719330,55.853752 240.218201,60.038494 238.457291,64.229553 
	C236.569260,58.001877 234.623947,51.585278 232.730255,45.338970 
	C229.638138,45.338970 226.916977,45.338970 223.822754,45.338970 
	C225.326721,49.405426 226.697556,53.040981 228.015610,56.695587 
	C229.342804,60.375656 230.673416,64.056129 231.903870,67.769127 
	C234.633545,76.006287 231.716370,79.997467 223.000320,79.999573 
	C195.669830,80.006187 168.339325,80.024094 141.008865,79.995110 
	C116.681259,79.969307 92.353706,79.886871 68.249191,79.506439 
	C74.958023,78.986366 80.449600,76.542458 85.313560,72.245529 
	C92.824310,65.610374 92.708015,56.864891 93.208275,47.880219 
	C93.557335,41.611126 91.379997,38.436440 85.722252,36.949844 
	C85.254654,36.826984 84.792915,36.681824 84.115967,36.485352 
	C83.738182,41.816448 82.894081,47.049911 83.131683,52.233795 
	C83.374290,57.527287 82.027107,61.829529 77.676872,64.679153 
	C74.479721,66.773453 70.955452,68.673859 67.306953,69.709236 
	C59.990974,71.785370 47.634132,63.884583 47.052223,56.988098 
	C46.498043,50.420227 46.159313,43.822529 46.041313,37.232296 
	C45.874947,27.940931 45.999203,18.644365 45.999203,9.435219 
	C42.127899,8.057219 38.581356,6.873302 35.095142,5.532533 
	C31.367117,4.098767 27.695972,2.517106 24.000000,1.000000 
M212.753082,70.496422 
	C214.412277,75.544800 218.010605,71.963638 221.367371,72.945961 
	C221.367371,60.317749 221.367371,48.337837 221.367371,36.354073 
	C219.009811,36.354073 216.625748,36.354073 213.720520,36.354073 
	C213.720520,39.425385 213.720520,42.145306 213.720520,45.001163 
	C211.197205,45.001163 209.204056,45.069981 207.217072,44.988632 
	C200.479141,44.712769 195.744507,47.440506 193.016495,53.788013 
	C190.748871,59.064304 192.007507,68.160744 195.771545,71.282707 
	C200.144592,74.909805 205.757614,74.685677 212.753082,70.496422 
M158.001038,68.402687 
	C158.091064,69.843407 158.181091,71.284126 158.265289,72.631790 
	C161.046829,72.631790 163.437088,72.631790 165.854980,72.631790 
	C166.258743,67.854309 166.245453,63.355019 167.159134,59.052570 
	C167.658798,56.699654 169.292465,54.132248 171.184616,52.633610 
	C174.270844,50.189228 178.775925,52.349888 178.934891,56.149929 
	C179.165833,61.670570 178.994125,67.208061 178.994125,72.747093 
	C181.376526,72.747093 183.970535,72.747093 186.531128,72.747093 
	C187.037231,67.444412 187.729630,62.403648 187.958939,57.341908 
	C188.489685,45.626411 183.981934,44.244617 175.734100,45.034672 
	C173.222198,45.275288 170.731796,46.354183 168.261780,46.259621 
	C165.298492,46.146172 162.367538,45.188320 159.403931,44.592369 
	C158.888748,52.985725 158.444763,60.219212 158.001038,68.402687 
M127.001900,62.152405 
	C127.301620,72.164856 137.621872,74.756889 146.094238,73.585159 
	C150.766037,72.939056 153.712997,71.590874 151.379395,66.181740 
	C140.011566,69.413628 134.869736,67.200661 135.484863,58.900864 
	C141.870331,58.900864 148.302475,58.900864 154.783142,58.900864 
	C155.589890,52.968731 153.516342,48.787365 148.861038,45.985550 
	C145.362579,43.879986 135.163620,44.791210 132.334457,47.149441 
	C127.880486,50.862041 126.392357,55.662685 127.001900,62.152405 
M124.934067,50.148335 
	C125.281853,48.597038 125.629639,47.045746 125.969536,45.529613 
	C120.534637,43.903790 117.064751,45.095608 115.483559,50.854485 
	C114.285431,55.218189 112.240944,59.349503 110.452682,63.889927 
	C108.444412,57.438339 106.530762,51.290718 104.689926,45.377007 
	C101.606537,45.377007 98.905022,45.377007 95.892509,45.377007 
	C99.214500,54.822117 102.381233,63.825806 105.646233,73.108887 
	C109.696503,72.345551 114.536507,75.116402 116.763680,68.772774 
	C118.914886,62.645504 121.953598,56.829823 124.934067,50.148335 
z"/>
<path fill="#FFFFFF" opacity="1.000000" stroke="none" 
	d="
M254.000000,48.000000 
	C254.000000,65.588234 254.000000,83.176460 254.000000,101.000000 
	C238.979919,101.000000 223.958618,101.000000 208.585907,100.654976 
	C209.063263,97.309006 210.738205,94.206612 210.395279,91.346130 
	C210.197662,89.697701 206.926468,87.816399 204.704697,87.144516 
	C200.787979,85.960075 198.185013,88.281738 196.621979,91.812340 
	C194.785797,95.959984 197.780014,98.339432 200.000000,101.000000 
	C133.773895,101.000000 67.547798,101.000000 1.000000,101.000000 
	C1.000000,77.313408 1.000000,53.625362 1.347696,29.582172 
	C4.386497,30.274731 7.022673,31.531443 9.797472,32.260685 
	C10.816217,32.528419 12.753808,31.870863 13.201807,31.050680 
	C13.696918,30.144241 13.401064,28.200922 12.686610,27.349613 
	C10.341250,24.554993 3.932494,23.982637 1.000000,26.000000 
	C1.000000,23.299986 1.000000,20.599974 1.379580,17.460716 
	C12.422206,20.998430 23.009907,25.198275 33.785900,28.841112 
	C38.013466,30.270245 37.451302,32.026058 35.813328,34.765732 
	C32.275398,33.571350 29.107038,32.167408 25.790348,31.493525 
	C23.371447,31.002056 18.988600,30.668823 18.539871,31.655737 
	C16.722973,35.651718 20.416243,36.145340 23.208719,37.255356 
	C24.142132,37.626385 24.446457,39.580029 25.038349,40.810238 
	C23.807011,41.257412 22.439251,42.290440 21.370020,42.041462 
	C18.214590,41.306690 15.124958,40.194695 12.109558,38.981754 
	C9.474003,37.921604 7.203076,36.898125 5.708520,40.592876 
	C4.086890,44.601776 7.342315,44.932438 9.519337,45.745369 
	C18.316477,49.030346 27.185272,52.123432 36.017719,55.283810 
	C35.195240,58.453903 34.136532,59.907253 31.107588,58.134720 
	C29.458624,57.169743 27.392141,56.282654 25.588234,56.410263 
	C24.021029,56.521126 21.695236,57.837204 21.291483,59.120071 
	C20.885590,60.409737 22.190804,63.569832 23.170765,63.763653 
	C37.488663,66.595558 48.359554,77.880020 62.499134,79.907074 
	C55.707939,79.973206 49.364502,79.708794 43.064484,80.116013 
	C39.920837,80.319214 36.856590,81.750832 33.756432,82.626801 
	C33.802662,83.388588 33.848892,84.150375 33.895123,84.912163 
	C35.580837,85.276367 37.266289,85.957611 38.952305,85.959015 
	C102.041702,86.011467 165.131149,86.009659 228.220596,85.986580 
	C234.670105,85.984215 238.453506,83.088394 240.962555,77.247032 
	C245.174713,67.440613 249.640778,57.743252 254.000000,48.000000 
M46.073532,95.154144 
	C48.407967,99.589127 53.311241,101.578392 56.911316,99.551048 
	C60.039375,97.789513 61.427803,93.034409 58.851315,90.141548 
	C57.282261,88.379829 54.166988,87.231651 51.719257,87.183640 
	C47.350468,87.097931 46.420963,90.744072 46.073532,95.154144 
M10.519679,58.118690 
	C12.084188,58.407921 13.721521,59.135040 15.197119,58.889645 
	C17.781454,58.459862 19.140629,56.236755 16.816835,54.603172 
	C14.196911,52.761406 10.744762,52.006470 7.553275,51.161449 
	C6.957068,51.003597 5.325399,52.563309 5.179789,53.488976 
	C5.021510,54.495182 5.803619,55.925392 6.614736,56.725853 
	C7.341375,57.442947 8.664710,57.555405 10.519679,58.118690 
z"/>
<path fill="#F58634" opacity="1.000000" stroke="none" 
	d="
M62.964817,79.853775 
	C48.359554,77.880020 37.488663,66.595558 23.170765,63.763653 
	C22.190804,63.569832 20.885590,60.409737 21.291483,59.120071 
	C21.695236,57.837204 24.021029,56.521126 25.588234,56.410263 
	C27.392141,56.282654 29.458624,57.169743 31.107588,58.134720 
	C34.136532,59.907253 35.195240,58.453903 36.017719,55.283810 
	C27.185272,52.123432 18.316477,49.030346 9.519337,45.745369 
	C7.342315,44.932438 4.086890,44.601776 5.708520,40.592876 
	C7.203076,36.898125 9.474003,37.921604 12.109558,38.981754 
	C15.124958,40.194695 18.214590,41.306690 21.370020,42.041462 
	C22.439251,42.290440 23.807011,41.257412 25.038349,40.810238 
	C24.446457,39.580029 24.142132,37.626385 23.208719,37.255356 
	C20.416243,36.145340 16.722973,35.651718 18.539871,31.655737 
	C18.988600,30.668823 23.371447,31.002056 25.790348,31.493525 
	C29.107038,32.167408 32.275398,33.571350 35.813328,34.765732 
	C37.451302,32.026058 38.013466,30.270245 33.785900,28.841112 
	C23.009907,25.198275 12.422206,20.998430 1.379580,17.010736 
	C1.000000,15.611111 1.000000,14.222222 1.369562,12.286026 
	C3.599465,11.722172 5.599813,11.249517 7.295317,11.769970 
	C13.786311,13.762450 20.150177,16.167711 26.633657,18.187223 
	C27.922281,18.588612 29.529037,17.968660 30.989094,17.819681 
	C30.914349,17.377140 30.839605,16.934601 30.764862,16.492060 
	C25.192587,14.454494 19.620312,12.416927 13.602728,10.216529 
	C15.502591,6.972270 17.251297,3.986135 19.000000,1.000000 
	C20.388889,1.000000 21.777779,1.000000 23.583334,1.000000 
	C27.695972,2.517106 31.367117,4.098767 35.095142,5.532533 
	C38.581356,6.873302 42.127899,8.057219 45.999203,9.435219 
	C45.999203,18.644365 45.874947,27.940931 46.041313,37.232296 
	C46.159313,43.822529 46.498043,50.420227 47.052223,56.988098 
	C47.634132,63.884583 59.990974,71.785370 67.306953,69.709236 
	C70.955452,68.673859 74.479721,66.773453 77.676872,64.679153 
	C82.027107,61.829529 83.374290,57.527287 83.131683,52.233795 
	C82.894081,47.049911 83.738182,41.816448 84.115967,36.485352 
	C84.792915,36.681824 85.254654,36.826984 85.722252,36.949844 
	C91.379997,38.436440 93.557335,41.611126 93.208275,47.880219 
	C92.708015,56.864891 92.824310,65.610374 85.313560,72.245529 
	C80.449600,76.542458 74.958023,78.986366 67.830231,79.558495 
	C65.780403,79.906944 64.372612,79.880363 62.964817,79.853775 
z"/>
<path fill="#83706A" opacity="1.000000" stroke="none" 
	d="
M62.499134,79.907074 
	C64.372612,79.880363 65.780403,79.906944 67.607162,79.881477 
	C92.353706,79.886871 116.681259,79.969307 141.008865,79.995110 
	C168.339325,80.024094 195.669830,80.006187 223.000320,79.999573 
	C231.716370,79.997467 234.633545,76.006287 231.903870,67.769127 
	C230.673416,64.056129 229.342804,60.375656 228.015610,56.695587 
	C226.697556,53.040981 225.326721,49.405426 223.822754,45.338970 
	C226.916977,45.338970 229.638138,45.338970 232.730255,45.338970 
	C234.623947,51.585278 236.569260,58.001877 238.457291,64.229553 
	C240.218201,60.038494 242.719330,55.853752 243.685806,51.340385 
	C244.909241,45.627052 248.044281,44.237206 253.560364,45.000443 
	C254.000000,45.750000 254.000000,46.500000 254.000000,47.625000 
	C249.640778,57.743252 245.174713,67.440613 240.962555,77.247032 
	C238.453506,83.088394 234.670105,85.984215 228.220596,85.986580 
	C165.131149,86.009659 102.041702,86.011467 38.952305,85.959015 
	C37.266289,85.957611 35.580837,85.276367 33.895123,84.912163 
	C33.848892,84.150375 33.802662,83.388588 33.756432,82.626801 
	C36.856590,81.750832 39.920837,80.319214 43.064484,80.116013 
	C49.364502,79.708794 55.707939,79.973206 62.499134,79.907074 
z"/>
<path fill="#FFFFFF" opacity="1.000000" stroke="none" 
	d="
M18.530293,1.000000 
	C17.251297,3.986135 15.502591,6.972270 13.602728,10.216529 
	C19.620312,12.416927 25.192587,14.454494 30.764862,16.492060 
	C30.839605,16.934601 30.914349,17.377140 30.989094,17.819681 
	C29.529037,17.968660 27.922281,18.588612 26.633657,18.187223 
	C20.150177,16.167711 13.786311,13.762450 7.295317,11.769970 
	C5.599813,11.249517 3.599465,11.722172 1.369562,11.869360 
	C1.000000,8.389867 1.000000,4.779733 1.000000,1.000000 
	C6.686095,1.000000 12.373339,1.000000 18.530293,1.000000 
z"/>
<path fill="#83706A" opacity="1.000000" stroke="none" 
	d="
M200.444168,101.000000 
	C197.780014,98.339432 194.785797,95.959984 196.621979,91.812340 
	C198.185013,88.281738 200.787979,85.960075 204.704697,87.144516 
	C206.926468,87.816399 210.197662,89.697701 210.395279,91.346130 
	C210.738205,94.206612 209.063263,97.309006 208.117249,100.654976 
	C205.629440,101.000000 203.258896,101.000000 200.444168,101.000000 
z"/>
<path fill="#F58634" opacity="1.000000" stroke="none" 
	d="
M1.000000,26.375000 
	C3.932494,23.982637 10.341250,24.554993 12.686610,27.349613 
	C13.401064,28.200922 13.696918,30.144241 13.201807,31.050680 
	C12.753808,31.870863 10.816217,32.528419 9.797472,32.260685 
	C7.022673,31.531443 4.386497,30.274731 1.347696,29.113516 
	C1.000000,28.250000 1.000000,27.500000 1.000000,26.375000 
z"/>
<path fill="#84716B" opacity="1.000000" stroke="none" 
	d="
M212.379776,70.565430 
	C205.757614,74.685677 200.144592,74.909805 195.771545,71.282707 
	C192.007507,68.160744 190.748871,59.064304 193.016495,53.788013 
	C195.744507,47.440506 200.479141,44.712769 207.217072,44.988632 
	C209.204056,45.069981 211.197205,45.001163 213.720520,45.001163 
	C213.720520,42.145306 213.720520,39.425385 213.720520,36.354073 
	C216.625748,36.354073 219.009811,36.354073 221.367371,36.354073 
	C221.367371,48.337837 221.367371,60.317749 221.367371,72.945961 
	C218.010605,71.963638 214.412277,75.544800 212.379776,70.565430 
M207.494339,50.990032 
	C203.007736,51.770061 200.801437,54.933064 200.101471,58.965252 
	C199.510223,62.371208 200.583344,65.737991 204.273376,66.870552 
	C208.392487,68.134804 210.889740,65.701782 211.883347,61.945953 
	C212.579971,59.312786 212.849182,56.520935 212.948212,53.786869 
	C213.070953,50.398174 211.428452,49.294815 207.494339,50.990032 
z"/>
<path fill="#84716B" opacity="1.000000" stroke="none" 
	d="
M158.000916,67.927689 
	C158.444763,60.219212 158.888748,52.985725 159.403931,44.592369 
	C162.367538,45.188320 165.298492,46.146172 168.261780,46.259621 
	C170.731796,46.354183 173.222198,45.275288 175.734100,45.034672 
	C183.981934,44.244617 188.489685,45.626411 187.958939,57.341908 
	C187.729630,62.403648 187.037231,67.444412 186.531128,72.747093 
	C183.970535,72.747093 181.376526,72.747093 178.994125,72.747093 
	C178.994125,67.208061 179.165833,61.670570 178.934891,56.149929 
	C178.775925,52.349888 174.270844,50.189228 171.184616,52.633610 
	C169.292465,54.132248 167.658798,56.699654 167.159134,59.052570 
	C166.245453,63.355019 166.258743,67.854309 165.854980,72.631790 
	C163.437088,72.631790 161.046829,72.631790 158.265289,72.631790 
	C158.181091,71.284126 158.091064,69.843407 158.000916,67.927689 
z"/>
<path fill="#84716A" opacity="1.000000" stroke="none" 
	d="
M127.001602,61.711731 
	C126.392357,55.662685 127.880486,50.862041 132.334457,47.149441 
	C135.163620,44.791210 145.362579,43.879986 148.861038,45.985550 
	C153.516342,48.787365 155.589890,52.968731 154.783142,58.900864 
	C148.302475,58.900864 141.870331,58.900864 135.484863,58.900864 
	C134.869736,67.200661 140.011566,69.413628 151.379395,66.181740 
	C153.712997,71.590874 150.766037,72.939056 146.094238,73.585159 
	C137.621872,74.756889 127.301620,72.164856 127.001602,61.711731 
M143.848251,50.386894 
	C139.534882,49.536594 137.016052,51.210289 135.824448,55.657799 
	C139.886856,55.657799 143.311798,55.657799 147.504013,55.657799 
	C146.275101,53.793194 145.335037,52.366859 143.848251,50.386894 
z"/>
<path fill="#84716B" opacity="1.000000" stroke="none" 
	d="
M124.768257,50.512802 
	C121.953598,56.829823 118.914886,62.645504 116.763680,68.772774 
	C114.536507,75.116402 109.696503,72.345551 105.646233,73.108887 
	C102.381233,63.825806 99.214500,54.822117 95.892509,45.377007 
	C98.905022,45.377007 101.606537,45.377007 104.689926,45.377007 
	C106.530762,51.290718 108.444412,57.438339 110.452682,63.889927 
	C112.240944,59.349503 114.285431,55.218189 115.483559,50.854485 
	C117.064751,45.095608 120.534637,43.903790 125.969536,45.529613 
	C125.629639,47.045746 125.281853,48.597038 124.768257,50.512802 
z"/>
<path fill="#84716B" opacity="1.000000" stroke="none" 
	d="
M46.043606,94.754204 
	C46.420963,90.744072 47.350468,87.097931 51.719257,87.183640 
	C54.166988,87.231651 57.282261,88.379829 58.851315,90.141548 
	C61.427803,93.034409 60.039375,97.789513 56.911316,99.551048 
	C53.311241,101.578392 48.407967,99.589127 46.043606,94.754204 
z"/>
<path fill="#F58634" opacity="1.000000" stroke="none" 
	d="
M10.122234,58.026657 
	C8.664710,57.555405 7.341375,57.442947 6.614736,56.725853 
	C5.803619,55.925392 5.021510,54.495182 5.179789,53.488976 
	C5.325399,52.563309 6.957068,51.003597 7.553275,51.161449 
	C10.744762,52.006470 14.196911,52.761406 16.816835,54.603172 
	C19.140629,56.236755 17.781454,58.459862 15.197119,58.889645 
	C13.721521,59.135040 12.084188,58.407921 10.122234,58.026657 
z"/>
<path fill="#FFFFFF" opacity="1.000000" stroke="none" 
	d="
M207.891418,50.963074 
	C211.428452,49.294815 213.070953,50.398174 212.948212,53.786869 
	C212.849182,56.520935 212.579971,59.312786 211.883347,61.945953 
	C210.889740,65.701782 208.392487,68.134804 204.273376,66.870552 
	C200.583344,65.737991 199.510223,62.371208 200.101471,58.965252 
	C200.801437,54.933064 203.007736,51.770061 207.891418,50.963074 
z"/>
<path fill="#FFFFFF" opacity="1.000000" stroke="none" 
	d="
M144.121613,50.663708 
	C145.335037,52.366859 146.275101,53.793194 147.504013,55.657799 
	C143.311798,55.657799 139.886856,55.657799 135.824448,55.657799 
	C137.016052,51.210289 139.534882,49.536594 144.121613,50.663708 
z"/>
</svg>